{"accessors":[{"name":"not_clear_obj_0_v6_1_positions","componentType":5126,"count":12070,"min":[-29.895000457763672,0,-32.55799865722656],"max":[29.899700164794922,78.72689819335938,32.56159973144531],"type":"VEC3","bufferView":0,"byteOffset":0},{"name":"not_clear_obj_0_v6_1_normals","componentType":5126,"count":12070,"min":[-1,-1,-1],"max":[1,1,1],"type":"VEC3","bufferView":0,"byteOffset":151128},{"name":"not_clear_obj_0_v6_1_texcoords","componentType":5126,"count":12070,"min":[-0.0982000008225441,-0.26669999957084656],"max":[1.0981999635696411,1.2661000490188599],"type":"VEC2","bufferView":1,"byteOffset":0},{"name":"not_clear_obj_0_v6_1_0_indices","componentType":5123,"count":57480,"min":[0],"max":[12069],"type":"SCALAR","bufferView":2,"byteOffset":0},{"name":"not_clear_obj_1_v6_1_positions","componentType":5126,"count":520,"min":[-1.5866999626159668,68.3594970703125,30.90920066833496],"max":[1.5758999586105347,72.591796875,32.491600036621094],"type":"VEC3","bufferView":0,"byteOffset":144840},{"name":"not_clear_obj_1_v6_1_normals","componentType":5126,"count":520,"min":[-0.9976000189781189,-1,-1],"max":[0.9976000189781189,1,1],"type":"VEC3","bufferView":0,"byteOffset":295968},{"name":"not_clear_obj_1_v6_1_texcoords","componentType":5126,"count":520,"min":[0,0],"max":[1,1],"type":"VEC2","bufferView":1,"byteOffset":96560},{"name":"not_clear_obj_1_v6_1_0_indices","componentType":5123,"count":2514,"min":[0],"max":[519],"type":"SCALAR","bufferView":2,"byteOffset":114960},{"name":"shadow_plane_v6_1_positions","componentType":5126,"count":4,"min":[-56.98789978027344,0,-56.98820114135742],"max":[56.98809814453125,0,56.98830032348633],"type":"VEC3","bufferView":0,"byteOffset":151080},{"name":"shadow_plane_v6_1_normals","componentType":5126,"count":4,"min":[0,1,0],"max":[0,1,0],"type":"VEC3","bufferView":0,"byteOffset":302208},{"name":"shadow_plane_v6_1_texcoords","componentType":5126,"count":4,"min":[0,0],"max":[1,1],"type":"VEC2","bufferView":1,"byteOffset":100720},{"name":"shadow_plane_v6_1_0_indices","componentType":5123,"count":6,"min":[0],"max":[3],"type":"SCALAR","bufferView":2,"byteOffset":119988}],"asset":{"generator":"obj2gltf","version":"2.0"},"buffers":[{"name":"BL6453_v6_LOD2","byteLength":537132,"uri":"data:application/octet-stream;base64,"}],"bufferViews":[{"name":"bufferView_0","buffer":0,"byteLength":302256,"byteOffset":0,"byteStride":12,"target":34962},{"name":"bufferView_1","buffer":0,"byteLength":100752,"byteOffset":302256,"byteStride":8,"target":34962},{"name":"bufferView_2","buffer":0,"byteLength":120000,"byteOffset":403008,"target":34963},{"buffer":0,"byteOffset":523008,"byteLength":4830},{"buffer":0,"byteOffset":527838,"byteLength":9291}],"images":[{"name":"spec__2d2d2d_79_Material_55_wf_79_BL6453_Mix_____9","mimeType":"image/png","bufferView":3},{"name":"BL6453_shadow_plane_v6","mimeType":"image/png","bufferView":4}],"materials":[{"name":"spec__1e1e1e_70_Material_54_wf_43_BL6453","pbrMetallicRoughness":{"baseColorFactor":[0.7608,0.6627,0.5216,1],"metallicFactor":0,"roughnessFactor":0.9299999999999999},"emissiveFactor":[0,0,0],"alphaMode":"OPAQUE","doubleSided":false},{"name":"spec__2d2d2d_79_Material_55_wf_79_BL6453","pbrMetallicRoughness":{"metallicRoughnessTexture":{"index":0},"baseColorFactor":[0.0118,0.0118,0.0118,1],"metallicFactor":1,"roughnessFactor":0.92},"emissiveFactor":[0,0,0],"alphaMode":"OPAQUE","doubleSided":false},{"name":"shadow_mtl_BL6453","pbrMetallicRoughness":{"baseColorTexture":{"index":1},"baseColorFactor":[1,1,1,1],"metallicFactor":0,"roughnessFactor":0.99},"emissiveFactor":[0,0,0],"alphaMode":"OPAQUE","doubleSided":false}],"meshes":[{"name":"not_clear_obj_0_v6_1","primitives":[{"attributes":{"POSITION":0,"NORMAL":1,"TEXCOORD_0":2},"indices":3,"material":0,"mode":4}]},{"name":"not_clear_obj_1_v6_1","primitives":[{"attributes":{"POSITION":4,"NORMAL":5,"TEXCOORD_0":6},"indices":7,"material":1,"mode":4}]},{"name":"shadow_plane_v6_1","primitives":[{"attributes":{"POSITION":8,"NORMAL":9,"TEXCOORD_0":10},"indices":11,"material":2,"mode":4}]}],"nodes":[{"name":"not_clear_obj_0_v6","mesh":0},{"name":"not_clear_obj_1_v6","mesh":1},{"name":"shadow_plane_v6","mesh":2}],"samplers":[{"magFilter":9729,"minFilter":9986,"wrapS":10497,"wrapT":10497}],"scene":0,"scenes":[{"nodes":[0,1,2]}],"textures":[{"name":"spec__2d2d2d_79_Material_55_wf_79_BL6453_Mix_____9","sampler":0,"source":0},{"name":"BL6453_shadow_plane_v6","sampler":0,"source":1}]}
