{"accessors":[{"name":"Node-Mesh_positions","componentType":5126,"count":20455,"min":[0.05550000071525574,0.20440000295639038,0.007300000172108412],"max":[0.2874000072479248,0.29249998927116394,0.18219999969005585],"type":"VEC3","bufferView":0,"byteOffset":0},{"name":"Node-Mesh_normals","componentType":5126,"count":20455,"min":[-1,-1,-1],"max":[1,1,1],"type":"VEC3","bufferView":0,"byteOffset":245460},{"name":"Node-Mesh_texcoords","componentType":5126,"count":20455,"min":[0.009789999574422836,0.010089999996125698],"max":[0.9900400042533875,0.989579975605011],"type":"VEC2","bufferView":1,"byteOffset":0},{"name":"Node-Mesh_0_indices","componentType":5123,"count":84786,"min":[0],"max":[20454],"type":"SCALAR","bufferView":2,"byteOffset":0}],"asset":{"generator":"obj2gltf","version":"2.0"},"buffers":[{"name":"Model","byteLength":1132152,"uri":"data:application/octet-stream;base64,"}],"bufferViews":[{"name":"bufferView_0","buffer":0,"byteLength":490920,"byteOffset":0,"byteStride":12,"target":34962},{"name":"bufferView_1","buffer":0,"byteLength":163640,"byteOffset":490920,"byteStride":8,"target":34962},{"name":"bufferView_2","buffer":0,"byteLength":169572,"byteOffset":654560,"target":34963},{"buffer":0,"byteOffset":824132,"byteLength":308020}],"images":[{"name":"Model","mimeType":"image/jpeg","bufferView":3}],"materials":[{"name":"material0","pbrMetallicRoughness":{"baseColorTexture":{"index":0},"baseColorFactor":[1,1,1,1],"metallicFactor":0,"roughnessFactor":1},"emissiveFactor":[0,0,0],"alphaMode":"OPAQUE","doubleSided":false}],"meshes":[{"name":"Node-Mesh","primitives":[{"attributes":{"POSITION":0,"NORMAL":1,"TEXCOORD_0":2},"indices":3,"material":0,"mode":4}]}],"nodes":[{"name":"Node","mesh":0}],"samplers":[{"magFilter":9729,"minFilter":9986,"wrapS":10497,"wrapT":10497}],"scene":0,"scenes":[{"nodes":[0]}],"textures":[{"name":"Model","sampler":0,"source":0}]}
